<?xml version="1.0" standalone="no"?>
<!DOCTYPE svg PUBLIC "-//W3C//DTD SVG 20010904//EN"
 "http://www.w3.org/TR/2001/REC-SVG-20010904/DTD/svg10.dtd">
<svg version="1.0" xmlns="http://www.w3.org/2000/svg"
 width="300.000000pt" height="226.000000pt" viewBox="0 0 300.000000 226.000000"
 preserveAspectRatio="xMidYMid meet">
<metadata>
Created by potrace 1.15, written by Peter Selinger 2001-2017
</metadata>
<g transform="translate(0.000000,226.000000) scale(0.100000,-0.100000)"
fill="none" stroke="none">

<clipPath id='clip1'>
  <rect x="0" y="0" width="3000" height="1175"  />
</clipPath>


<path d="M150 2250 c-26 -25 -62 -112 -55 -132 3 -7 0 -18 -5 -25 -10 -12
-21 -68 -28 -136 -2 -20 -8 -81 -14 -136 -6 -55 -12 -163 -15 -240 -2 -77 -6
-147 -9 -155 -7 -17 1 -882 8 -1003 3 -44 8 -87 11 -98 4 -10 8 -47 9 -82 2
-35 8 -72 14 -83 6 -10 13 -31 17 -47 3 -15 14 -36 24 -46 17 -17 38 -19 247
-19 126 0 237 4 247 10 21 11 22 46 1 76 -8 12 -13 26 -9 32 6 10 -11 93 -26
126 -6 11 -9 24 -8 30 4 13 -12 117 -19 129 -6 10 -9 45 -13 170 -3 80 28 140
102 194 29 23 57 47 62 56 4 8 15 15 23 15 17 0 94 46 110 66 7 8 21 17 33 19
26 5 87 40 119 69 13 12 25 19 27 16 5 -7 105 52 105 61 0 4 20 17 44 28 24
12 60 37 79 56 20 19 40 35 44 35 13 0 89 82 96 103 4 9 12 17 19 17 11 0 33
29 86 115 27 44 62 127 57 135 -3 5 1 23 10 40 26 50 21 290 -6 290 -5 0 -9
12 -9 28 0 30 -43 112 -66 125 -8 4 -14 12 -14 18 0 13 -65 70 -104 91 -73 40
-120 58 -151 58 -19 0 -36 4 -39 9 -4 6 -208 9 -494 9 l-487 -1 -23 -23z m679
-304 c30 -6 70 -11 89 -12 19 -1 39 -5 45 -10 5 -5 35 -24 66 -43 44 -27 58
-42 64 -67 24 -109 24 -111 -2 -178 -14 -36 -33 -72 -43 -80 -10 -8 -37 -37
-60 -64 -23 -28 -59 -62 -79 -76 -20 -15 -51 -42 -68 -60 -18 -19 -33 -30 -33
-26 0 8 -89 -50 -105 -68 -5 -6 -47 -24 -91 -39 -70 -25 -85 -27 -103 -15 -34
21 -49 82 -42 171 4 43 3 81 -1 83 -5 3 -3 14 2 24 6 11 11 53 13 95 1 41 4
75 7 75 5 0 30 90 33 120 2 19 41 75 80 117 23 24 41 33 81 38 40 6 76 15 92
24 1 1 26 -4 55 -9z" style="fill:#3371FF" />


<path clip-path="url('#clip1')" d="M150 2250 c-26 -25 -62 -112 -55 -132 3 -7 0 -18 -5 -25 -10 -12
-21 -68 -28 -136 -2 -20 -8 -81 -14 -136 -6 -55 -12 -163 -15 -240 -2 -77 -6
-147 -9 -155 -7 -17 1 -882 8 -1003 3 -44 8 -87 11 -98 4 -10 8 -47 9 -82 2
-35 8 -72 14 -83 6 -10 13 -31 17 -47 3 -15 14 -36 24 -46 17 -17 38 -19 247
-19 126 0 237 4 247 10 21 11 22 46 1 76 -8 12 -13 26 -9 32 6 10 -11 93 -26
126 -6 11 -9 24 -8 30 4 13 -12 117 -19 129 -6 10 -9 45 -13 170 -3 80 28 140
102 194 29 23 57 47 62 56 4 8 15 15 23 15 17 0 94 46 110 66 7 8 21 17 33 19
26 5 87 40 119 69 13 12 25 19 27 16 5 -7 105 52 105 61 0 4 20 17 44 28 24
12 60 37 79 56 20 19 40 35 44 35 13 0 89 82 96 103 4 9 12 17 19 17 11 0 33
29 86 115 27 44 62 127 57 135 -3 5 1 23 10 40 26 50 21 290 -6 290 -5 0 -9
12 -9 28 0 30 -43 112 -66 125 -8 4 -14 12 -14 18 0 13 -65 70 -104 91 -73 40
-120 58 -151 58 -19 0 -36 4 -39 9 -4 6 -208 9 -494 9 l-487 -1 -23 -23z m679
-304 c30 -6 70 -11 89 -12 19 -1 39 -5 45 -10 5 -5 35 -24 66 -43 44 -27 58
-42 64 -67 24 -109 24 -111 -2 -178 -14 -36 -33 -72 -43 -80 -10 -8 -37 -37
-60 -64 -23 -28 -59 -62 -79 -76 -20 -15 -51 -42 -68 -60 -18 -19 -33 -30 -33
-26 0 8 -89 -50 -105 -68 -5 -6 -47 -24 -91 -39 -70 -25 -85 -27 -103 -15 -34
21 -49 82 -42 171 4 43 3 81 -1 83 -5 3 -3 14 2 24 6 11 11 53 13 95 1 41 4
75 7 75 5 0 30 90 33 120 2 19 41 75 80 117 23 24 41 33 81 38 40 6 76 15 92
24 1 1 26 -4 55 -9z" style="fill:yellow" />


<path d="M1000 2250 c-18 -22 -50 -126 -41 -135 2 -2 -2 -20 -10 -40 -9 -19
-17 -58 -20 -87 -2 -28 -11 -80 -19 -116 -8 -36 -12 -73 -9 -83 3 -10 1 -24
-6 -31 -6 -8 -12 -45 -14 -84 -2 -38 -7 -75 -11 -81 -4 -7 -8 -43 -10 -81 -1
-37 -6 -73 -10 -79 -3 -6 -8 -44 -10 -84 -1 -40 -5 -79 -9 -87 -7 -18 -19
-172 -20 -257 0 -35 -4 -63 -9 -63 -5 0 -8 -35 -6 -77 1 -43 -1 -85 -5 -93 -3
-8 -4 -76 -2 -150 3 -74 7 -211 9 -305 2 -93 5 -179 6 -190 4 -38 24 -64 55
-74 19 -6 262 -9 628 -8 516 2 599 4 612 17 13 13 13 27 5 90 -6 41 -17 88
-25 104 -7 16 -11 32 -9 37 7 10 -14 96 -29 124 -5 11 -11 35 -13 54 -3 47
-60 161 -80 161 -22 0 -81 -38 -93 -61 -6 -10 -16 -19 -21 -19 -11 0 -83 -52
-104 -74 -10 -11 -93 -45 -132 -53 -13 -3 -23 -8 -23 -12 0 -9 -183 -1 -190 8
-3 3 -31 24 -62 45 -32 22 -58 44 -58 50 0 13 -42 119 -50 126 -4 3 -7 34 -8
69 -2 35 -6 71 -11 80 -5 9 -6 51 -2 94 4 43 3 81 -1 83 -5 3 -4 13 2 23 5 10
10 49 11 87 0 38 5 85 10 106 5 20 11 58 12 85 2 26 6 55 10 63 12 31 25 112
20 131 -3 10 -1 19 4 19 11 0 33 87 33 131 0 16 4 29 8 29 8 0 37 92 37 120 1
8 4 20 7 25 15 24 48 122 48 142 0 12 4 23 8 25 9 3 52 105 52 122 0 6 11 34
25 61 29 60 30 83 6 112 -17 21 -25 21 -243 22 -217 0 -225 -1 -243 -21z" style="fill:#3371FF" />

<path clip-path="url('#clip1')" d="M1000 2250 c-18 -22 -50 -126 -41 -135 2 -2 -2 -20 -10 -40 -9 -19
-17 -58 -20 -87 -2 -28 -11 -80 -19 -116 -8 -36 -12 -73 -9 -83 3 -10 1 -24
-6 -31 -6 -8 -12 -45 -14 -84 -2 -38 -7 -75 -11 -81 -4 -7 -8 -43 -10 -81 -1
-37 -6 -73 -10 -79 -3 -6 -8 -44 -10 -84 -1 -40 -5 -79 -9 -87 -7 -18 -19
-172 -20 -257 0 -35 -4 -63 -9 -63 -5 0 -8 -35 -6 -77 1 -43 -1 -85 -5 -93 -3
-8 -4 -76 -2 -150 3 -74 7 -211 9 -305 2 -93 5 -179 6 -190 4 -38 24 -64 55
-74 19 -6 262 -9 628 -8 516 2 599 4 612 17 13 13 13 27 5 90 -6 41 -17 88
-25 104 -7 16 -11 32 -9 37 7 10 -14 96 -29 124 -5 11 -11 35 -13 54 -3 47
-60 161 -80 161 -22 0 -81 -38 -93 -61 -6 -10 -16 -19 -21 -19 -11 0 -83 -52
-104 -74 -10 -11 -93 -45 -132 -53 -13 -3 -23 -8 -23 -12 0 -9 -183 -1 -190 8
-3 3 -31 24 -62 45 -32 22 -58 44 -58 50 0 13 -42 119 -50 126 -4 3 -7 34 -8
69 -2 35 -6 71 -11 80 -5 9 -6 51 -2 94 4 43 3 81 -1 83 -5 3 -4 13 2 23 5 10
10 49 11 87 0 38 5 85 10 106 5 20 11 58 12 85 2 26 6 55 10 63 12 31 25 112
20 131 -3 10 -1 19 4 19 11 0 33 87 33 131 0 16 4 29 8 29 8 0 37 92 37 120 1
8 4 20 7 25 15 24 48 122 48 142 0 12 4 23 8 25 9 3 52 105 52 122 0 6 11 34
25 61 29 60 30 83 6 112 -17 21 -25 21 -243 22 -217 0 -225 -1 -243 -21z" style="fill:yellow" />




<path d="M1600 2250 c-27 -10 -39 -36 -23 -52 6 -6 11 -22 11 -36 0 -33 32
-131 42 -131 5 0 8 -8 7 -17 -4 -25 29 -119 47 -133 7 -7 14 -20 14 -29 0 -9
9 -31 20 -48 23 -39 63 -45 80 -13 6 11 15 20 21 20 12 0 101 59 110 73 4 5
19 10 35 12 53 6 109 18 119 26 6 4 44 4 85 -1 41 -5 78 -6 82 -4 4 2 18 -10
32 -29 27 -35 39 -113 19 -125 -6 -4 -26 -36 -44 -71 -18 -35 -45 -76 -59 -91
-14 -15 -34 -44 -45 -65 -11 -20 -34 -53 -51 -71 -17 -19 -37 -47 -45 -62 -7
-15 -30 -46 -49 -68 -19 -23 -42 -54 -50 -70 -8 -16 -27 -42 -42 -58 -16 -17
-37 -49 -49 -72 -11 -24 -24 -44 -28 -46 -13 -6 -71 -96 -71 -112 0 -8 -6 -19
-14 -23 -19 -11 -76 -106 -76 -127 0 -9 -4 -16 -10 -16 -11 0 -59 -91 -66
-123 -2 -11 -8 -23 -13 -27 -14 -8 -61 -117 -54 -124 4 -3 -1 -14 -9 -23 -19
-22 -52 -122 -44 -130 3 -4 -1 -17 -10 -31 -17 -25 -28 -113 -28 -216 0 -47 4
-61 20 -72 10 -7 26 -19 34 -26 11 -10 152 -13 685 -11 806 1 731 0 755 13 21
11 27 49 9 67 -5 5 -12 26 -13 45 -2 19 -14 57 -27 84 -12 27 -23 54 -23 59
-1 21 -38 111 -53 128 -9 9 -13 20 -10 23 3 4 -7 33 -24 65 -25 51 -33 59 -58
59 -26 0 -121 -62 -121 -80 0 -4 -37 -25 -82 -47 -111 -55 -209 -69 -321 -46
-85 17 -121 41 -151 101 -16 31 -16 36 4 101 11 37 20 75 20 84 0 8 4 17 8 19
12 4 75 118 66 118 -4 0 4 12 18 27 15 16 38 49 51 75 14 26 32 55 41 64 24
24 78 104 70 104 -4 0 9 16 28 35 19 20 44 52 54 72 10 20 35 54 55 75 20 21
44 54 53 73 9 19 20 35 24 35 12 0 82 98 82 115 0 8 6 15 13 15 12 1 82 96 82
112 0 5 6 12 12 16 18 11 83 105 83 119 0 7 6 16 13 20 19 12 77 107 77 126 0
10 4 17 10 17 12 0 60 93 60 115 0 9 7 27 16 40 8 13 16 43 17 67 1 36 -4 49
-31 78 l-32 35 -668 1 c-367 1 -677 -2 -690 -7z" style="fill:#3371FF" />


<path clip-path="url('#clip1')" d="M1600 2250 c-27 -10 -39 -36 -23 -52 6 -6 11 -22 11 -36 0 -33 32
-131 42 -131 5 0 8 -8 7 -17 -4 -25 29 -119 47 -133 7 -7 14 -20 14 -29 0 -9
9 -31 20 -48 23 -39 63 -45 80 -13 6 11 15 20 21 20 12 0 101 59 110 73 4 5
19 10 35 12 53 6 109 18 119 26 6 4 44 4 85 -1 41 -5 78 -6 82 -4 4 2 18 -10
32 -29 27 -35 39 -113 19 -125 -6 -4 -26 -36 -44 -71 -18 -35 -45 -76 -59 -91
-14 -15 -34 -44 -45 -65 -11 -20 -34 -53 -51 -71 -17 -19 -37 -47 -45 -62 -7
-15 -30 -46 -49 -68 -19 -23 -42 -54 -50 -70 -8 -16 -27 -42 -42 -58 -16 -17
-37 -49 -49 -72 -11 -24 -24 -44 -28 -46 -13 -6 -71 -96 -71 -112 0 -8 -6 -19
-14 -23 -19 -11 -76 -106 -76 -127 0 -9 -4 -16 -10 -16 -11 0 -59 -91 -66
-123 -2 -11 -8 -23 -13 -27 -14 -8 -61 -117 -54 -124 4 -3 -1 -14 -9 -23 -19
-22 -52 -122 -44 -130 3 -4 -1 -17 -10 -31 -17 -25 -28 -113 -28 -216 0 -47 4
-61 20 -72 10 -7 26 -19 34 -26 11 -10 152 -13 685 -11 806 1 731 0 755 13 21
11 27 49 9 67 -5 5 -12 26 -13 45 -2 19 -14 57 -27 84 -12 27 -23 54 -23 59
-1 21 -38 111 -53 128 -9 9 -13 20 -10 23 3 4 -7 33 -24 65 -25 51 -33 59 -58
59 -26 0 -121 -62 -121 -80 0 -4 -37 -25 -82 -47 -111 -55 -209 -69 -321 -46
-85 17 -121 41 -151 101 -16 31 -16 36 4 101 11 37 20 75 20 84 0 8 4 17 8 19
12 4 75 118 66 118 -4 0 4 12 18 27 15 16 38 49 51 75 14 26 32 55 41 64 24
24 78 104 70 104 -4 0 9 16 28 35 19 20 44 52 54 72 10 20 35 54 55 75 20 21
44 54 53 73 9 19 20 35 24 35 12 0 82 98 82 115 0 8 6 15 13 15 12 1 82 96 82
112 0 5 6 12 12 16 18 11 83 105 83 119 0 7 6 16 13 20 19 12 77 107 77 126 0
10 4 17 10 17 12 0 60 93 60 115 0 9 7 27 16 40 8 13 16 43 17 67 1 36 -4 49
-31 78 l-32 35 -668 1 c-367 1 -677 -2 -690 -7z" style="fill:yellow" />



</g>
</svg>
